<svg width="24" height="24" viewBox="0 0 24 24" fill="none" xmlns="http://www.w3.org/2000/svg">
<path fill-rule="evenodd" clip-rule="evenodd" d="M20.9511 3.33229C20.7059 3.35721 20.36 3.44112 19.7575 3.59175L11.7575 5.59175C11.3701 5.6886 11.1656 5.74144 11.026 5.79463L11.0202 5.79686L11.0194 5.80303C11.0017 5.95137 11 6.16257 11 6.5619V18.0003C11 20.7618 8.76142 23.0005 6 23.0005C3.23858 23.0005 1 20.7619 1 18.0005C1 15.2391 3.23858 13.0005 6 13.0005C7.12561 13.0005 8.16435 13.3724 9.00001 14.0001L9.00001 6.51651C8.99994 6.18107 8.99987 5.84731 9.03356 5.56556C9.07196 5.2444 9.16391 4.8829 9.4236 4.5503C9.68329 4.21769 10.0117 4.04081 10.314 3.92566C10.5791 3.82464 10.9029 3.74376 11.2284 3.66247L19.3338 1.63611C19.8525 1.50635 20.3419 1.38391 20.7488 1.34254C21.1978 1.29689 21.7455 1.3258 22.2308 1.70471C22.7161 2.08362 22.877 2.60796 22.9416 3.05466C23.0002 3.45946 23.0001 3.96394 23 4.49858L23 13.0003C23 13.0003 23 13.0004 23 13.0003C23 15.7618 20.7614 18.0005 18 18.0005C15.2386 18.0005 13 15.7619 13 13.0005C13 10.2391 15.2386 8.00049 18 8.00049C19.1256 8.00049 20.1643 8.37244 21 9.00013V4.5619C21 3.94081 20.9975 3.5849 20.9622 3.341L20.9608 3.33133L20.9511 3.33229ZM21.0956 3.32784L21.0926 3.32738C21.0947 3.32762 21.0956 3.32781 21.0956 3.32784ZM20.9315 3.19973C20.9313 3.19919 20.9315 3.19971 20.9315 3.19973V3.19973ZM6 15.0005C4.34315 15.0005 3 16.3436 3 18.0005C3 19.6573 4.34315 21.0005 6 21.0005C7.65685 21.0005 9 19.6573 9 18.0005C9 16.3436 7.65685 15.0005 6 15.0005ZM15 13.0005C15 11.3436 16.3431 10.0005 18 10.0005C19.6569 10.0005 21 11.3436 21 13.0005C21 14.6573 19.6569 16.0005 18 16.0005C16.3431 16.0005 15 14.6573 15 13.0005Z" fill="#F5F5F5"/>
</svg>
